<svg xmlns="http://www.w3.org/2000/svg" xmlns:xlink="http://www.w3.org/1999/xlink" viewBox="0,0,256,256" width="48px" height="48px" fill-rule="nonzero"><g fill="#212121" fill-rule="nonzero" stroke="none" stroke-width="1" stroke-linecap="butt" stroke-linejoin="miter" stroke-miterlimit="10" stroke-dasharray="" stroke-dashoffset="0" font-family="none" font-weight="none" font-size="none" text-anchor="none" style="mix-blend-mode: normal"><path d="M0,256v-256h256v256z" id="bgRectangle"></path></g><g fill="#ffffff" fill-rule="nonzero" stroke="none" stroke-width="1" stroke-linecap="butt" stroke-linejoin="miter" stroke-miterlimit="10" stroke-dasharray="" stroke-dashoffset="0" font-family="none" font-weight="none" font-size="none" text-anchor="none" style="mix-blend-mode: normal"><g transform="scale(4,4)"><path d="M23.77344,12c-10.918,0 -11.77344,0.85444 -11.77344,11.77344v16.45312c0,10.918 0.85544,11.77344 11.77344,11.77344h16.45312c10.918,0 11.77344,-0.85444 11.77344,-11.77344v-16.45312c0,-10.919 -0.85444,-11.77344 -11.77344,-11.77344zM21.16797,16h21.66406c4.793,0 5.16797,0.37497 5.16797,5.16797v21.66406c0,4.793 -0.37597,5.16797 -5.16797,5.16797h-21.66406c-4.793,0 -5.16797,-0.37597 -5.16797,-5.16797v-21.66406c0,-4.793 0.37497,-5.16797 5.16797,-5.16797zM22.50195,18.50391c-1.629,0 -2.94922,1.32027 -2.94922,2.94727c0,1.627 1.31922,2.94922 2.94922,2.94922c1.625,0 2.94531,-1.32122 2.94531,-2.94922c0,-1.625 -1.32031,-2.94727 -2.94531,-2.94727zM37.93359,26.32227c-2.46,0 -4.11016,1.34991 -4.78516,2.62891h-0.07031v-2.22266h-4.84961v16.27148h5.05273v-8.05078c0,-2.123 0.40611,-4.17773 3.03711,-4.17773c2.594,0 2.62695,2.42941 2.62695,4.31641v7.91211h5.05469v-8.92578c0,-4.382 -0.94541,-7.75195 -6.06641,-7.75195zM19.97266,26.72852v16.27148h5.05664v-16.27148z"></path></g></g></svg>